#N canvas 1012 433 609 513 10;
#X obj 46 94 rfft~;
#X obj 46 127 *~;
#X obj 77 127 *~;
#X obj 46 157 sqrt~;
#X obj 53 204 clip~ 0 500;
#X obj 48 230 tabwrite~ \$0-fft;
#N canvas 0 22 450 300 (subpatch) 0;
#X array \$0-fft 128 float 0;
#X coords 0 500 127 0 128 50 1 0 0;
#X restore 164 196 graph;
#X obj 38 7 inlet~;
#X obj 376 331 tabread \$0-fft;
#X obj 367 44 inlet read;
#X obj 321 367 list.build;
#X obj 400 251 until;
#X obj 401 282 f 0;
#X obj 440 285 + 1;
#X msg 461 229 0;
#X obj 319 454 outlet;
#X obj 498 128 block~ 1024 1;
#X obj 49 50 hip~ 10;
#X obj 323 162 t b b b b;
#X msg 382 201 128;
#X text 423 201 <-- size of the table;
#X obj 507 36 inlet enable;
#X obj 504 68 f;
#X connect 0 0 1 0;
#X connect 0 0 1 1;
#X connect 0 1 2 0;
#X connect 0 1 2 1;
#X connect 1 0 3 0;
#X connect 2 0 3 0;
#X connect 3 0 4 0;
#X connect 4 0 5 0;
#X connect 7 0 17 0;
#X connect 8 0 10 1;
#X connect 9 0 18 0;
#X connect 10 0 15 0;
#X connect 11 0 12 0;
#X connect 12 0 13 0;
#X connect 12 0 8 0;
#X connect 13 0 12 1;
#X connect 14 0 12 1;
#X connect 17 0 0 0;
#X connect 18 0 10 0;
#X connect 18 1 19 0;
#X connect 18 2 14 0;
#X connect 18 3 5 0;
#X connect 19 0 11 0;
#X connect 21 0 22 0;
#X connect 22 0 16 0;
